D:\school\WTK\thesis\model\3dpredictsim\Results\batch_windlass\Pog_s1_tmt_aCst_d00_k500_WL30_ig24_pas_GRF.mot
nRows=20
nColumns=19

name D:\school\WTK\thesis\model\3dpredictsim\Results\batch_windlass\Pog_s1_tmt_aCst_d00_k500_WL30_ig24_pas_GRF.mot
datacolumns 19
datarows 20
range 0.0000000000 0.2139783330
endheader
time 	ground_force_vx	ground_force_vy	ground_force_vz	ground_force_px	ground_force_py	ground_force_pz	1_ground_force_vx	1_ground_force_vy	1_ground_force_vz	1_ground_force_px	1_ground_force_py	1_ground_force_pz	ground_torque_x	ground_torque_y	ground_torque_z	1_ground_torque_x	1_ground_torque_y	1_ground_torque_z
        0.0000000000	      -59.5107051860	       42.6441246968	       16.3539617030	        0.1703344498	        0.0000000000	        0.0412783035	       92.2130478084	      493.4491475120	       -2.0469433392	       -0.3164628680	        0.0000000000	       -0.0336173464	        0.0000000000	        0.0000000000	        0.0000000000	        0.0000000000	        0.0000000000	        0.0000000000	
        0.0112620175	     -107.1050738722	       96.5149243335	       40.2956040846	        0.1808810426	        0.0000000000	        0.0383447819	       73.5133498249	      405.7213224523	       -6.5265240128	       -0.3118776587	        0.0000000000	       -0.0320831946	        0.0000000000	        0.0000000000	        0.0000000000	        0.0000000000	        0.0000000000	        0.0000000000	
        0.0225240351	      -99.6775190314	      204.5508104200	       71.4621230351	        0.1875936132	        0.0000000000	        0.0367019774	       46.2155157787	      308.1664699757	      -13.0785965195	       -0.3047281153	        0.0000000000	       -0.0292249158	        0.0000000000	        0.0000000000	        0.0000000000	        0.0000000000	        0.0000000000	        0.0000000000	
        0.0337860526	      -49.4207692434	      378.0235666781	       15.2280445862	        0.1920480526	        0.0000000000	        0.0352346199	       20.3241678164	      213.0684925095	      -12.0999043862	       -0.2933818278	        0.0000000000	       -0.0236994726	        0.0000000000	        0.0000000000	        0.0000000000	        0.0000000000	        0.0000000000	        0.0000000000	
        0.0450480701	      -56.7044681709	      575.1299259707	       -4.4386385393	        0.1989555474	        0.0000000000	        0.0368124617	        4.7831235152	      157.2583516891	      -10.3677586979	       -0.2839132631	        0.0000000000	       -0.0182119688	        0.0000000000	        0.0000000000	        0.0000000000	        0.0000000000	        0.0000000000	        0.0000000000	
        0.0563100876	      -86.5543114871	      747.7999241407	      -12.2749326303	        0.2065894182	        0.0000000000	        0.0391155588	       -1.1888796465	      123.4556431402	       -9.0060749086	       -0.2840430208	        0.0000000000	       -0.0183516930	        0.0000000000	        0.0000000000	        0.0000000000	        0.0000000000	        0.0000000000	        0.0000000000	
        0.0675721052	     -104.1547119778	      827.7375014809	      -15.2262954416	        0.2121625635	        0.0000000000	        0.0406687947	       -5.6187461330	       80.9350440252	       -8.2998634418	       -0.2837687606	        0.0000000000	       -0.0184256189	        0.0000000000	        0.0000000000	        0.0000000000	        0.0000000000	        0.0000000000	        0.0000000000	
        0.0788341227	     -109.3758758480	      845.9998770165	      -16.7715730206	        0.2167664151	        0.0000000000	        0.0417750002	      -12.0041054032	       36.6074654023	       -4.6239129462	       -0.2844151310	        0.0000000000	       -0.0182901123	        0.0000000000	        0.0000000000	        0.0000000000	        0.0000000000	        0.0000000000	        0.0000000000	
        0.0900961402	     -111.3935458301	      851.3242566889	      -16.4739714205	        0.2207440202	        0.0000000000	        0.0423679980	        0.1526885867	       -0.1478841311	       -0.0086749312	        0.0000000000	        0.0000000000	        0.0000000000	        0.0000000000	        0.0000000000	        0.0000000000	        0.0000000000	        0.0000000000	        0.0000000000	
        0.1013581578	      -96.1293009381	      837.5985006466	      -16.5321172015	        0.2245304795	        0.0000000000	        0.0424654612	        0.0001478967	       -0.0001168546	       -0.0000149413	        0.0000000000	        0.0000000000	        0.0000000000	        0.0000000000	        0.0000000000	        0.0000000000	        0.0000000000	        0.0000000000	        0.0000000000	
        0.1126201753	      -86.7561289556	      802.9329891125	      -15.7627796841	        0.2289877946	        0.0000000000	        0.0424864837	        0.0004651388	       -0.0003296523	       -0.0000454347	        0.0000000000	        0.0000000000	        0.0000000000	        0.0000000000	        0.0000000000	        0.0000000000	        0.0000000000	        0.0000000000	        0.0000000000	
        0.1238821928	      -76.2551900535	      765.0941627833	      -15.7492770664	        0.2336751501	        0.0000000000	        0.0423497831	        0.0027275915	       -0.0017567687	       -0.0002629155	        0.0000000000	        0.0000000000	        0.0000000000	        0.0000000000	        0.0000000000	        0.0000000000	        0.0000000000	        0.0000000000	        0.0000000000	
        0.1351442103	      -65.2924794035	      725.0833371256	      -15.8302536884	        0.2380712220	        0.0000000000	        0.0422440688	        0.0026341369	       -0.0015767937	       -0.0002442557	        0.0000000000	        0.0000000000	        0.0000000000	        0.0000000000	        0.0000000000	        0.0000000000	        0.0000000000	        0.0000000000	        0.0000000000	
        0.1464062279	      -54.9811115609	      688.0274630637	      -16.1728817266	        0.2421227953	        0.0000000000	        0.0422120916	       -0.0631154570	        0.0354967895	        0.0056975699	        0.0000000000	        0.0000000000	        0.0000000000	        0.0000000000	        0.0000000000	        0.0000000000	        0.0000000000	        0.0000000000	        0.0000000000	
        0.1576682454	      -45.8400066020	      657.1810175420	      -16.7689641838	        0.2461285979	        0.0000000000	        0.0422412375	       -0.0387814977	        0.0205818838	        0.0034813071	        0.0000000000	        0.0000000000	        0.0000000000	        0.0000000000	        0.0000000000	        0.0000000000	        0.0000000000	        0.0000000000	        0.0000000000	
        0.1689302629	      -37.9716550459	      632.6343195408	      -17.4555728915	        0.2501916861	        0.0000000000	        0.0423071384	       -0.0236244322	        0.0118790513	        0.0021461964	        0.0000000000	        0.0000000000	        0.0000000000	        0.0000000000	        0.0000000000	        0.0000000000	        0.0000000000	        0.0000000000	        0.0000000000	
        0.1801922805	      -31.2539345874	      613.1980071023	      -18.0983951736	        0.2543307536	        0.0000000000	        0.0423917898	       -0.0177092742	        0.0084827174	        0.0016337739	        0.0000000000	        0.0000000000	        0.0000000000	        0.0000000000	        0.0000000000	        0.0000000000	        0.0000000000	        0.0000000000	        0.0000000000	
        0.1914542980	      -25.6312436109	      598.3331733795	      -18.5542233356	        0.2587429073	        0.0000000000	        0.0424733836	       -0.0171833026	        0.0078902633	        0.0016058830	        0.0000000000	        0.0000000000	        0.0000000000	        0.0000000000	        0.0000000000	        0.0000000000	        0.0000000000	        0.0000000000	        0.0000000000	
        0.2027163155	      -21.5091588187	      587.9773700033	      -18.7039114542	        0.2634739478	        0.0000000000	        0.0425272652	       -0.0215367502	        0.0095387280	        0.0020247068	        0.0000000000	        0.0000000000	        0.0000000000	        0.0000000000	        0.0000000000	        0.0000000000	        0.0000000000	        0.0000000000	        0.0000000000	
        0.2139783330	      -19.2778406691	      581.8612726396	      -18.6001959965	        0.2683496582	        0.0000000000	        0.0425392400	       -0.0335269933	        0.0143983417	        0.0031449418	        0.0000000000	        0.0000000000	        0.0000000000	        0.0000000000	        0.0000000000	        0.0000000000	        0.0000000000	        0.0000000000	        0.0000000000	
